<svg xmlns="http://www.w3.org/2000/svg" viewBox="0 0 64 64">
  <defs>
    <linearGradient id="g" x1="0" y1="0" x2="1" y2="1">
      <stop stop-color="#8b5cf6"/>
      <stop offset=".52" stop-color="#d946ef"/>
      <stop offset="1" stop-color="#ff2d95"/>
    </linearGradient>
  </defs>
  <rect width="64" height="64" rx="17" fill="#0a0714"/>
  <path d="M16 15h19c8 0 13 4 13 10 0 4-2 7-6 8 5 1 8 5 8 10 0 8-6 12-15 12H16V15Zm17 16c5 0 7-2 7-5s-2-4-7-4h-9v9h9Zm1 17c5 0 8-2 8-5s-3-5-8-5H24v10h10Z" fill="url(#g)"/>
</svg>
